<?xml version="1.0" standalone="no"?>
<!DOCTYPE svg PUBLIC "-//W3C//DTD SVG 20010904//EN"
 "http://www.w3.org/TR/2001/REC-SVG-20010904/DTD/svg10.dtd">
<svg version="1.0" xmlns="http://www.w3.org/2000/svg"
 width="512.000000pt" height="512.000000pt" viewBox="0 0 512.000000 512.000000"
 preserveAspectRatio="xMidYMid meet">
<metadata>
Created by potrace 1.16, written by Peter Selinger 2001-2019
</metadata>
<g transform="translate(0.000000,512.000000) scale(0.100000,-0.100000)"
fill="#000000" stroke="none">
<path d="M2380 4300 c-196 -30 -303 -63 -470 -141 -96 -46 -260 -136 -260
-144 0 -2 9 -1 20 2 42 11 16 -18 -89 -101 -259 -204 -440 -423 -561 -679
-300 -637 -214 -1308 239 -1861 73 -89 226 -236 311 -300 81 -61 249 -160 257
-152 4 3 1 24 -6 47 -7 22 -11 43 -9 45 3 2 52 -16 110 -41 110 -46 311 -109
330 -103 6 2 -14 10 -45 18 -123 29 -33 34 112 6 46 -9 128 -19 182 -23 l99
-6 0 46 0 47 -79 0 c-178 0 -433 65 -626 160 -328 161 -620 447 -774 755 -115
232 -165 444 -165 700 1 306 68 540 236 823 102 171 175 257 354 417 232 206
554 372 810 416 58 10 76 18 111 50 24 22 39 39 35 38 -4 0 -59 -9 -122 -19z
m-1085 -2800 c163 -200 450 -403 724 -514 53 -21 85 -40 87 -50 3 -20 9 -21
-86 13 -106 39 -260 120 -389 205 -165 109 -407 356 -440 451 l-11 30 27 -31
c16 -17 55 -64 88 -104z m840 -588 c-8 -9 -25 20 -18 31 3 5 10 2 15 -7 6 -10
7 -20 3 -24z"/>
<path d="M2956 4217 c157 -44 250 -78 352 -132 45 -24 82 -42 82 -40 0 2 -31
22 -69 45 -131 78 -303 139 -431 154 -42 4 -26 -2 66 -27z"/>
<path d="M2407 3856 c-103 -19 -196 -48 -293 -91 -71 -33 -204 -111 -204 -121
0 -3 22 7 49 21 32 16 52 21 56 14 9 -14 -9 -33 -80 -87 -138 -105 -233 -204
-316 -331 -70 -105 -60 -108 20 -4 121 155 334 346 449 402 229 112 459 148
683 105 477 -90 878 -515 963 -1020 58 -345 5 -623 -165 -870 -61 -88 -210
-233 -300 -293 -103 -68 -224 -121 -348 -153 -151 -39 -375 -49 -517 -24 -272
47 -534 188 -714 384 -118 128 -224 297 -275 437 -29 81 -35 74 -10 -11 34
-115 50 -156 100 -258 150 -306 505 -556 885 -622 149 -26 369 -15 523 24 219
57 424 177 578 340 159 168 252 348 305 592 25 116 26 388 1 512 -92 460 -408
844 -820 998 -166 62 -402 85 -570 56z"/>
<path d="M2378 3716 c-137 -25 -348 -105 -348 -134 0 -17 7 -15 109 27 239
100 515 108 753 21 335 -123 630 -435 732 -777 65 -217 74 -472 22 -667 -30
-116 -29 -140 2 -33 41 141 55 252 49 392 -18 390 -179 716 -470 951 -100 80
-287 174 -407 205 -108 27 -329 35 -442 15z"/>
<path d="M3876 3630 c95 -119 146 -202 215 -343 210 -436 240 -901 82 -1297
-55 -139 -101 -220 -198 -348 -316 -420 -757 -694 -1240 -772 -63 -10 -72 -14
-93 -45 l-22 -35 46 0 c148 0 420 67 602 148 298 133 541 324 713 562 213 294
319 581 336 910 22 436 -156 926 -453 1245 -54 59 -54 58 12 -25z"/>
<path d="M2533 3523 c26 -2 67 -2 90 0 23 2 2 3 -48 3 -49 0 -68 -1 -42 -3z"/>
<path d="M2698 3513 c7 -3 16 -2 19 1 4 3 -2 6 -13 5 -11 0 -14 -3 -6 -6z"/>
<path d="M2748 3503 c7 -3 16 -2 19 1 4 3 -2 6 -13 5 -11 0 -14 -3 -6 -6z"/>
<path d="M1599 3398 c-136 -163 -241 -377 -285 -581 -22 -101 -29 -315 -15
-417 15 -99 51 -227 92 -327 32 -76 106 -199 115 -190 3 3 -16 46 -41 97 -107
214 -145 369 -145 598 0 87 6 185 15 234 34 197 148 438 282 596 24 28 42 52
39 52 -3 0 -29 -28 -57 -62z"/>
<path d="M2435 3404 c-230 -51 -447 -245 -525 -470 -65 -185 -67 -419 -6 -591
l14 -38 12 30 c7 17 24 55 39 85 19 42 25 67 22 106 -1 28 3 71 10 95 l13 44
7 -78 c25 -246 243 -398 501 -347 202 39 326 211 288 396 -24 114 -82 195
-170 232 -50 22 -140 38 -140 25 0 -4 26 -43 59 -86 88 -119 143 -220 148
-275 6 -66 -35 -129 -108 -166 -60 -30 -96 -32 -202 -12 -86 17 -121 33 -173
79 -95 83 -112 255 -32 322 24 20 32 22 58 14 16 -6 53 -37 82 -68 61 -66 153
-214 151 -242 -1 -14 5 -19 23 -19 31 0 104 36 104 52 0 6 -16 41 -37 77 -99
179 -208 302 -295 336 -36 13 -65 16 -117 13 -83 -6 -130 -32 -166 -91 -24
-39 -25 -40 -20 -12 4 17 26 71 50 120 49 102 134 203 212 253 65 42 171 88
154 68 -8 -9 -10 -16 -7 -16 4 0 2 -8 -3 -18 -9 -17 -3 -18 102 -14 132 5 205
-11 312 -66 88 -46 208 -163 252 -247 68 -130 104 -333 70 -386 -17 -25 -51
-179 -42 -187 9 -9 16 5 40 70 l23 63 7 -57 c6 -50 3 -122 -7 -169 -2 -9 -12
-29 -22 -45 -19 -29 -19 -29 1 -11 25 22 80 139 99 210 37 140 24 344 -31 479
-83 203 -266 362 -480 417 l-70 18 50 25 c33 17 60 24 80 21 17 -3 46 -1 65 4
34 9 33 9 -50 37 -107 35 -241 43 -345 20z m128 -101 c-13 -2 -33 -2 -45 0
-13 2 -3 4 22 4 25 0 35 -2 23 -4z"/>
<path d="M2958 3360 l-38 -48 63 -40 c83 -54 203 -181 257 -271 122 -205 153
-471 81 -691 -55 -167 -147 -306 -271 -407 -298 -242 -702 -222 -996 51 -277
256 -368 666 -235 1063 16 45 27 83 25 83 -7 0 -74 -128 -94 -180 -80 -202
-82 -475 -5 -690 134 -374 498 -628 870 -607 373 22 687 266 811 631 112 328
47 662 -181 939 -53 64 -159 159 -222 198 l-28 17 -37 -48z"/>
<path d="M2927 2428 c-9 -23 -15 -43 -13 -45 2 -2 11 15 20 38 9 23 15 43 13
45 -2 2 -11 -15 -20 -38z"/>
<path d="M2986 2291 c-20 -32 -61 -84 -93 -115 -178 -177 -457 -180 -645 -7
-64 59 -68 59 -128 -4 l-35 -37 64 -60 c41 -38 91 -73 138 -96 136 -64 306
-55 473 25 128 62 254 207 276 321 10 50 -10 39 -50 -27z"/>
<path d="M3064 2118 l-19 -23 23 19 c12 11 22 21 22 23 0 8 -8 2 -26 -19z"/>
<path d="M3596 2025 c-9 -26 -7 -32 5 -12 6 10 9 21 6 23 -2 3 -7 -2 -11 -11z"/>
</g>
</svg>